<svg width="16" height="16" viewBox="0 0 16 16" fill="none" xmlns="http://www.w3.org/2000/svg">
<path d="M9.25 0H6.75C6.33438 0 6 0.334375 6 0.75V6H3.25937C2.70312 6 2.425 6.67188 2.81875 7.06563L7.57187 11.8219C7.80625 12.0562 8.19063 12.0562 8.425 11.8219L13.1844 7.06563C13.5781 6.67188 13.3 6 12.7438 6H10V0.75C10 0.334375 9.66563 0 9.25 0ZM0 11.75V15.25C0 15.6656 0.334375 16 0.75 16H15.25C15.6656 16 16 15.6656 16 15.25V11.75C16 11.3344 15.6656 11 15.25 11H10.6656L9.13438 12.5312C8.50625 13.1594 7.49375 13.1594 6.86563 12.5312L5.33438 11H0.75C0.334375 11 0 11.3344 0 11.75ZM3.875 14.5C3.875 14.1562 4.15625 13.875 4.5 13.875C4.84375 13.875 5.125 14.1562 5.125 14.5C5.125 14.8438 4.84375 15.125 4.5 15.125C4.15625 15.125 3.875 14.8438 3.875 14.5ZM1.875 14.5C1.875 14.1562 2.15625 13.875 2.5 13.875C2.84375 13.875 3.125 14.1562 3.125 14.5C3.125 14.8438 2.84375 15.125 2.5 15.125C2.15625 15.125 1.875 14.8438 1.875 14.5Z" fill="#3C1A5B"/>
</svg>
