<svg width="52" height="54" viewBox="0 0 52 54" fill="none" xmlns="http://www.w3.org/2000/svg">
<path d="M52 20.1461C52 21.6816 51.7577 23.1964 51.2875 24.6526C49.0788 35.0309 29.9794 47.5858 29.1668 48.1201C28.9129 48.2838 28.628 48.3694 28.3376 48.3694C28.0478 48.3694 27.759 48.2935 27.5051 48.1201C27.2866 47.9724 21.9055 44.446 16.4498 39.5989C15.7965 39.0141 15.7279 38.0054 16.2761 37.3298C16.8375 36.66 17.8078 36.5785 18.4621 37.1477C22.5289 40.7558 26.6389 43.6728 28.3454 44.8481C34.0816 40.9643 46.745 31.0834 48.2972 23.7961C48.7026 22.5088 48.8857 21.3381 48.8857 20.1495C48.8857 16.0124 46.7168 12.1988 43.2242 10.2009C38.7641 7.63083 32.7939 8.8159 29.5308 12.9007C28.9445 13.6383 27.7386 13.6383 27.1412 12.9007C23.8681 8.81302 17.9023 7.63715 13.4483 10.1963C9.94464 12.1988 7.77572 16.0102 7.77572 20.1432C7.77572 21.3237 7.96822 22.4996 8.32666 23.6352C8.55677 24.6979 8.99709 25.7371 9.55743 26.8153H18.6049L21.7119 19.3999C21.978 18.7652 22.6136 18.3659 23.2674 18.4372C23.9334 18.4975 24.4888 18.9949 24.637 19.6705L26.9243 29.7128L29.8832 24.6744C30.1619 24.1959 30.6637 23.9035 31.2058 23.9035H36.8208C37.6755 23.9035 38.3702 24.6221 38.3702 25.5136C38.3702 26.4006 37.6755 27.1232 36.8208 27.1232H32.0759L27.6185 34.7265C27.3342 35.2113 26.8331 35.5008 26.3004 35.5008C26.2157 35.5008 26.1339 35.4939 26.0581 35.4819C25.4336 35.3779 24.9418 34.9 24.7919 34.2652L22.7015 25.1179L21.0498 29.066C20.8031 29.6594 20.2439 30.0339 19.6271 30.0339H1.54994C0.701402 30.0333 0 29.313 0 28.4243C0 27.5374 0.701402 26.8147 1.54994 26.8147H6.09523C5.77274 26.0157 5.5122 25.2402 5.35068 24.49C4.91811 23.1872 4.68413 21.6701 4.68413 20.1427C4.68413 14.8337 7.46429 9.94582 11.9565 7.37578C17.1595 4.38698 24.0446 5.32676 28.3443 9.52245C32.6323 5.32619 39.5125 4.38698 44.7243 7.37578C49.211 9.94237 52 14.8337 52 20.1461Z" fill="#3784C3"/>
</svg>
