<svg width="24" height="24" viewBox="0 0 24 24" fill="none" xmlns="http://www.w3.org/2000/svg">
<g clip-path="url(#clip0)">
<path d="M7.83868 20.184C8.16564 20.5223 8.70981 20.5223 9.04821 20.184C9.37517 19.857 9.37517 19.3128 9.04821 18.9866L2.91521 12.8536L23.1533 12.8536C23.625 12.8529 24 12.4779 24 12.0061C24 11.5343 23.625 11.1472 23.1533 11.1472L2.91521 11.1472L9.0482 5.02561C9.37517 4.68722 9.37517 4.14229 9.0482 3.81609C8.70981 3.47769 8.16488 3.47769 7.83868 3.81609L0.253795 11.401C-0.0845993 11.7279 -0.0845993 12.2721 0.253795 12.5983L7.83868 20.184Z" fill="white"/>
</g>
<defs>
<clipPath id="clip0">
<rect width="24" height="24" fill="white" transform="translate(24 24) rotate(180)"/>
</clipPath>
</defs>
</svg>
